<svg xmlns="http://www.w3.org/2000/svg" xmlns:xlink="http://www.w3.org/1999/xlink" width="574.713" height="412.205" viewBox="0 0 574.713 412.205"><defs><style>.a{fill:#665eff;}.b{opacity:0.7;}.c{fill:url(#a);}.d{opacity:0.2;}.e{fill:#fff;}.f{fill:url(#b);}.g{fill:url(#c);}.h{fill:#535461;}.i,.o{opacity:0.1;}.j{fill:#e0e0e0;}.k{fill:url(#d);}.l{fill:url(#e);}.m{fill:#eee;}.n{fill:url(#h);}.p{fill:url(#i);}.q{fill:none;}</style><linearGradient id="a" x1="0.5" y1="1" x2="0.5" gradientUnits="objectBoundingBox"><stop offset="0" stop-color="gray" stop-opacity="0.251"/><stop offset="0.54" stop-color="gray" stop-opacity="0.122"/><stop offset="1" stop-color="gray" stop-opacity="0.102"/></linearGradient><linearGradient id="b" x1="0.5" y1="1" x2="0.5" y2="0" xlink:href="#a"/><linearGradient id="c" x1="0.5" y1="1" x2="0.5" y2="0" xlink:href="#a"/><linearGradient id="d" x1="0.5" x2="0.5" y2="1" gradientUnits="objectBoundingBox"><stop offset="0" stop-color="#e0e0e0"/><stop offset="0.31" stop-color="#fccc63"/><stop offset="0.77" stop-color="#f55f44"/></linearGradient><linearGradient id="e" x1="0.5" y1="0" x2="0.5" y2="1" xlink:href="#d"/><linearGradient id="h" x1="0.5" y1="0.999" x2="0.5" y2="-0.001" xlink:href="#a"/><linearGradient id="i" x1="0.503" y1="1" x2="0.503" y2="0.002" xlink:href="#a"/></defs><g transform="translate(0.018 -0.014)"><path class="a" d="M534.111,444.023a70.838,70.838,0,0,1-14.024-.187c-51.194-5.66-120.906-4.05-177.735,31.161C263.759,523.684,140.59,482,86.258,459.327c-41.514-17.319-63.066-59.739-50.12-99.557.182-.562.37-1.124.567-1.686,8.146-23.663,24.225-42.182,44.136-52,17.355-8.556,42.693-26.422,53.968-60.752A145.379,145.379,0,0,1,154.153,206.2c22.22-31.13,68.736-77.489,148.736-77.2a128.926,128.926,0,0,1,41.215,6.976c29.227,9.958,55.623,30.2,75.753,58.271,12.844,17.9,32.092,34.543,59.648,35.9,38.243,1.893,74.74,19.7,102.119,51.386.79.911,1.569,1.828,2.349,2.754C632.721,342.359,598.862,438.363,534.111,444.023Z" transform="translate(-32.41 -85.397)"/><g class="b" transform="translate(133.473 338.957)"><circle class="c" cx="6.986" cy="6.986" r="6.986"/></g><circle class="d" cx="6.673" cy="6.673" r="6.673" transform="translate(133.787 339.271)"/><circle class="e" cx="2.582" cy="2.582" r="2.582" transform="translate(100.237 207.09)"/><circle class="e" cx="2.582" cy="2.582" r="2.582" transform="translate(284.518 356.945)"/><circle class="e" cx="1.443" cy="1.443" r="1.443" transform="translate(176.809 371.247)"/><circle class="e" cx="1.443" cy="1.443" r="1.443" transform="translate(496.263 301.382)"/><circle class="e" cx="1.443" cy="1.443" r="1.443" transform="translate(413.742 171.778)"/><circle class="e" cx="1.443" cy="1.443" r="1.443" transform="translate(530.689 235.061)"/><circle class="e" cx="2.582" cy="2.582" r="2.582" transform="translate(145.801 122.544)"/><path class="e" d="M147.543,589.968h-2.3v-2.3h-.937v2.3h-2.3v.937h2.3V593.2h.937V590.9h2.3Z" transform="translate(-70.124 -290.146)"/><path class="e" d="M261.543,587.969h-2.3v-2.3h-.937v2.3h-2.3v.937h2.3V591.2h.937v-2.293h2.3Z" transform="translate(-126.41 -289.158)"/><path class="e" d="M424.543,679.968h-2.3v-2.3h-.937v2.3h-2.3v.937h2.3V683.2h.937V680.9h2.3Z" transform="translate(-206.889 -334.582)"/><path class="e" d="M654.511,129.688h-1.048V128.64h-.425v1.048H651.99v.425h1.048v1.048h.425v-1.048h1.048Z" transform="translate(-321.919 -63.507)"/><path class="e" d="M949.511,319.688h-1.048V318.64h-.425v1.048H946.99v.425h1.048v1.048h.425v-1.048h1.048Z" transform="translate(-467.57 -157.316)"/><path class="e" d="M775.511,443.688h-1.048V442.64h-.425v1.048H772.99v.425h1.048v1.048h.425v-1.048h1.048Z" transform="translate(-381.66 -218.539)"/><path class="e" d="M67.511,521.688H66.463V520.64h-.425v1.048H64.99v.425h1.048v1.048h.425v-1.048h1.048Z" transform="translate(-32.097 -257.051)"/><path class="e" d="M152.511,691.688h-1.048V690.64h-.425v1.048H149.99v.425h1.048v1.048h.425v-1.048h1.048Z" transform="translate(-74.064 -340.985)"/><path class="e" d="M419.511,154.688h-1.048V153.64h-.425v1.048H416.99v.425h1.048v1.048h.425v-1.048h1.048Z" transform="translate(-205.891 -75.85)"/><path class="e" d="M293.511,453.688h-1.048V452.64h-.425v1.048H290.99v.425h1.048v1.048h.425v-1.048h1.048Z" transform="translate(-143.681 -223.477)"/><path class="e" d="M320.511,367.688h-1.048V366.64h-.425v1.048H317.99v.425h1.048v1.048h.425v-1.048h1.048Z" transform="translate(-157.011 -181.016)"/><g class="b" transform="translate(372.922 275.482)"><circle class="f" cx="5.832" cy="5.832" r="5.832"/></g><circle class="d" cx="5.402" cy="5.402" r="5.402" transform="translate(373.352 275.912)"/><circle class="d" cx="6.04" cy="6.04" r="6.04" transform="translate(387.259 313.3)"/><g class="b" transform="translate(191.921 0.014)"><path class="g" d="M558.772,198.336a78.354,78.354,0,0,0-8.86-36.451,45.686,45.686,0,0,0-7.27-10.586,5.189,5.189,0,0,0-5.944-1.144,5.387,5.387,0,0,0-2.081,1.342,46.729,46.729,0,0,0-7.088,10.191,78.689,78.689,0,0,0-9.3,37.464v7.837H513.2V115.855a122.067,122.067,0,0,0-12.657-54.641c-3.969-7.918-7.594-12.839-10.373-15.861a7.189,7.189,0,0,0-10.809,0,70.442,70.442,0,0,0-10.125,15.269,122.645,122.645,0,0,0-13.274,56.1v90.227h-4.344v-8.217a78.668,78.668,0,0,0-9.3-37.438,47.8,47.8,0,0,0-7.088-10.191,5.2,5.2,0,0,0-6.075-1.1l.182.1a5.448,5.448,0,0,0-1.7,1.185,45.977,45.977,0,0,0-7.265,10.586,78.355,78.355,0,0,0-8.86,36.451V334.506h15.512L425.32,345.7v33.479h12.687V345.7l-1.7-11.2H451.6V210.466h4.344v123.5h12.388L466.556,345.7v33.479h12.687V345.7l-1.777-11.75h16.707l-1.787,11.75v33.479h12.687V345.7l-1.777-11.75h9.892V210.481h5.027V334.7h4.075v-.187h13.477L534.077,345.7v33.479h12.687V345.7l-1.7-11.2h13.7Z" transform="translate(-411.519 -42.904)"/></g><path class="h" d="M424.684,571.026H412.67l2.147-14.586h7.721Z" transform="translate(-203.758 -274.726)"/><g class="i" transform="translate(210.461 283.43)"><path d="M415.73,563.905h8.915l-.6-4.075h-7.721Z" transform="translate(-415.73 -559.83)"/></g><path class="h" d="M628.039,571.026H616.03l2.141-14.586H625.9Z" transform="translate(-304.164 -274.726)"/><g class="i" transform="translate(313.41 283.43)"><path d="M619.08,563.905H628l-.6-4.075h-7.726Z" transform="translate(-619.08 -559.83)"/></g><path class="h" d="M501.789,571.026H489.78l2.142-14.586h7.726Z" transform="translate(-241.83 -274.726)"/><g class="i" transform="translate(249.494 283.43)"><path d="M492.83,563.905h8.92l-.6-4.075h-7.726Z" transform="translate(-492.83 -559.83)"/></g><path class="h" d="M550.089,571.026H538.08l2.141-14.586h7.721Z" transform="translate(-265.677 -274.726)"/><g class="i" transform="translate(273.947 283.43)"><path d="M541.13,563.905h8.92l-.6-4.075h-7.721Z" transform="translate(-541.13 -559.83)"/></g><rect class="h" width="85.792" height="3.432" transform="translate(220.925 161.177)"/><path class="j" d="M642.325,252.609a4.835,4.835,0,0,0-7.169,0,46.145,46.145,0,0,0-6.723,9.923,78.356,78.356,0,0,0-8.8,36.451V431.038H657.6V298.426a78.076,78.076,0,0,0-8.389-35.51A44.332,44.332,0,0,0,642.325,252.609Z" transform="translate(-322.349 -145.643)"/><path class="j" d="M434.5,252.609a4.835,4.835,0,0,1,7.169,0,46.16,46.16,0,0,1,6.728,9.923,78.414,78.414,0,0,1,8.8,36.451V431.038h-37.97V298.426a78.076,78.076,0,0,1,8.389-35.51A44.186,44.186,0,0,1,434.5,252.609Z" transform="translate(-223.405 -145.643)"/><path class="h" d="M387.25,307.33l9.012.046v11.107H387.25Z" transform="translate(-191.208 -151.732)"/><path class="h" d="M444.02,307.33l9.012.046v11.107H444.02Z" transform="translate(-219.237 -151.732)"/><path class="h" d="M587.22,307.33l9.007.046v11.107H587.22Z" transform="translate(-289.939 -151.732)"/><path class="h" d="M643.99,307.33l9.006.046v11.107H643.99Z" transform="translate(-317.969 -151.732)"/><g class="i" transform="translate(212.527 105.203)"><path d="M464.684,262.192a46.155,46.155,0,0,0-6.728-9.923,4.815,4.815,0,0,0-5.736-1.078,5.118,5.118,0,0,1,1.448,1.078,46.143,46.143,0,0,1,6.723,9.923,78.345,78.345,0,0,1,8.8,36.451V430.687h4.293V298.648a78.41,78.41,0,0,0-8.8-36.456Z" transform="translate(-452.22 -250.678)"/></g><g class="i" transform="translate(296.849 105.568)"><path d="M631.446,262.912a46.146,46.146,0,0,1,6.723-9.923,5.022,5.022,0,0,1,1.661-1.185,4.83,4.83,0,0,0-5.518,1.185,45.971,45.971,0,0,0-6.728,9.923,78.415,78.415,0,0,0-8.8,36.451V431.428h3.863V299.373A78.353,78.353,0,0,1,631.446,262.912Z" transform="translate(-618.779 -251.399)"/></g><path class="k" d="M451.251,660.744h-.329a5.842,5.842,0,0,1-5.842-5.842V628.14h12.014V654.9A5.842,5.842,0,0,1,451.251,660.744Z" transform="translate(-236.168 -331.841)"/><path class="l" d="M528.361,660.744h-.334a5.842,5.842,0,0,1-5.837-5.842V628.14H534.2V654.9A5.842,5.842,0,0,1,528.361,660.744Z" transform="translate(-274.24 -331.841)"/><path class="l" d="M576.656,660.744h-.339a5.842,5.842,0,0,1-5.827-5.842V628.14H582.5V654.9A5.842,5.842,0,0,1,576.656,660.744Z" transform="translate(-298.087 -331.841)"/><path class="l" d="M654.611,660.744h-.319a5.843,5.843,0,0,1-5.852-5.842V628.14h12.009V654.9a5.842,5.842,0,0,1-5.837,5.842Z" transform="translate(-336.574 -331.841)"/><path class="m" d="M534.726,47.316a6.683,6.683,0,0,0-10.232,0,71.028,71.028,0,0,0-9.619,14.869,122.266,122.266,0,0,0-12.565,54.636V328.749h54.17V115.971a121.871,121.871,0,0,0-11.968-53.209C540.791,55.052,537.364,50.257,534.726,47.316Z" transform="translate(-264.425 -43.892)"/><rect class="h" width="28.27" height="12.955" rx="6.478" transform="translate(250.486 26.966)"/><g class="i" transform="translate(238.179 80.174)"><rect width="53.619" height="2.081"/></g><path class="n" d="M762.986,347.51h0a17.526,17.526,0,0,0-5.174-4.556h0a17.38,17.38,0,1,0-8.693,32.436,9.872,9.872,0,0,0,1.1-.04,17.375,17.375,0,0,0,12.773-27.809Z" transform="translate(-377.707 -189.887)"/><path class="d" d="M766.441,358.868a16.428,16.428,0,0,1-15.388,16.393c-.342,0-.691.036-1.041.036a16.433,16.433,0,1,1,8.217-30.659h0a16.5,16.5,0,0,1,4.891,4.334h0A16.352,16.352,0,0,1,766.441,358.868Z" transform="translate(-378.605 -190.776)"/><path class="o" d="M754.131,354.146a17.658,17.658,0,0,0-2.45,1.291,3.853,3.853,0,0,0-1.311,1.175,1.519,1.519,0,0,0-.03,1.676,2.359,2.359,0,0,0,1.848.668,4.729,4.729,0,0,0,2.116-.213,4.555,4.555,0,0,0,1.235-.9l1.412-1.281c.506-.445,1.013-1.058.815-1.686a1.519,1.519,0,0,0-1.2-.81,5.022,5.022,0,0,0-3.544.623" transform="translate(-386.768 -196.477)"/><g class="i" transform="translate(360.599 173.712)"><circle cx="0.866" cy="0.866" r="0.866"/></g><g class="i" transform="translate(375.873 165.931)"><circle cx="3.169" cy="3.169" r="3.169"/></g><g class="i" transform="translate(375.899 153.861)"><path d="M783.567,351.124h0a4.323,4.323,0,1,1-4.9-4.334h0a16.5,16.5,0,0,1,4.9,4.334Z" transform="translate(-774.92 -346.79)"/></g><g class="i" transform="translate(372.415 176.018)"><path d="M780.464,392.086a16.388,16.388,0,0,1-12.393,6.936c0-.228-.03-.456-.03-.688a7.786,7.786,0,0,1,12.424-6.247Z" transform="translate(-768.04 -390.555)"/></g><path class="p" d="M328.8,534.72h0a12.226,12.226,0,0,0-3.615-3.2h0a12.15,12.15,0,1,0-6.075,22.63c.258,0,.506,0,.77-.025a12.15,12.15,0,0,0,8.91-19.405Z" transform="translate(-167.936 -283.312)"/><path class="d" d="M331.336,542.7A11.461,11.461,0,0,1,320.6,554.134h-.726a11.462,11.462,0,1,1,5.731-21.39h0a11.478,11.478,0,0,1,3.412,3.038h0A11.4,11.4,0,0,1,331.336,542.7Z" transform="translate(-168.692 -283.983)"/><path class="o" d="M322.744,539.422a11.9,11.9,0,0,0-1.706.9,2.8,2.8,0,0,0-.916.82,1.078,1.078,0,0,0,0,1.169,1.635,1.635,0,0,0,1.286.466,3.3,3.3,0,0,0,1.478-.147,3.186,3.186,0,0,0,.866-.628l.982-.891c.344-.314.719-.739.567-1.174a1.012,1.012,0,0,0-.835-.567A3.479,3.479,0,0,0,322,539.8" transform="translate(-174.387 -287.979)"/><g class="i" transform="translate(143.639 262.632)"><circle cx="0.602" cy="0.602" r="0.602"/></g><g class="i" transform="translate(154.296 257.205)"><circle cx="2.212" cy="2.212" r="2.212"/></g><g class="i" transform="translate(154.255 248.771)"><path d="M343.2,537.3h0a3.038,3.038,0,1,1-3.417-3.038h0A11.477,11.477,0,0,1,343.2,537.3Z" transform="translate(-337.12 -534.26)"/></g><g class="i" transform="translate(151.906 264.217)"><path d="M341.127,565.863a11.437,11.437,0,0,1-8.647,4.84c0-.157,0-.319,0-.506a5.432,5.432,0,0,1,8.667-4.359Z" transform="translate(-332.48 -564.77)"/></g><path class="q" d="M837.69,539.42l11.037,5.873-8.617,9.639" transform="translate(-413.605 -266.323)"/><circle class="e" cx="0.932" cy="0.932" r="0.932" transform="translate(482.493 215.874)"/></g></svg>